<svg width="241" height="68" viewBox="0 0 241 68" fill="none" xmlns="http://www.w3.org/2000/svg">
<g clip-path="url(#clip0_296_32)">
<path d="M71.5372 4.8533L38.8447 60.3889C38.5509 60.8684 38.1356 61.2651 37.6392 61.5405C37.1428 61.816 36.5821 61.9607 36.0117 61.9607C35.4414 61.9607 34.8807 61.816 34.3843 61.5405C33.8878 61.2651 33.4725 60.8684 33.1788 60.3889L0.47209 4.8533C0.135726 4.23963 0.00992409 3.53599 0.113331 2.84669C0.216737 2.15739 0.543848 1.51911 1.04618 1.02646C1.54851 0.533803 2.19933 0.212993 2.90217 0.111579C3.60501 0.0101642 4.32246 0.133543 4.94819 0.463428L21.318 9.72476C22.149 10.1856 22.8003 10.9041 23.1695 11.7675C23.5387 12.6309 23.6049 13.5901 23.3578 14.4943C22.8057 16.405 22.7114 18.4148 23.082 20.3671C23.4527 22.3194 24.2784 24.1612 25.4947 25.7489C26.711 27.3366 28.2849 28.6271 30.0937 29.5197C31.9024 30.4124 33.8971 30.883 35.9219 30.8948C37.9467 30.9067 39.9469 30.4594 41.7664 29.588C43.5858 28.7166 45.1754 27.4446 46.4109 25.8713C47.6464 24.298 48.4944 22.4659 48.8888 20.5181C49.2832 18.5703 49.2133 16.5595 48.6846 14.6425C48.4117 13.7227 48.459 12.74 48.819 11.8495C49.1789 10.959 49.831 10.2114 50.6724 9.72476L67.047 0.463428C67.673 0.127909 68.3929 5.38006e-05 69.0991 0.098964C69.8054 0.197874 70.46 0.51824 70.9653 1.0122C71.4705 1.50615 71.7993 2.14718 71.9023 2.8395C72.0054 3.53182 71.8773 4.23827 71.5372 4.8533Z" fill="url(#paint0_linear_296_32)"/>
<path fill-rule="evenodd" clip-rule="evenodd" d="M32.2876 14.1057C32.4246 14.1891 32.3962 14.3511 32.3301 14.5132C32.2423 14.6727 32.1863 14.8472 32.1649 15.0272C32.1753 15.1381 32.2141 15.2446 32.2777 15.3369C32.3412 15.4291 32.4275 15.5042 32.5284 15.5551C32.6729 15.478 32.7894 15.3588 32.8617 15.214C32.934 15.0692 32.9587 14.9058 32.9323 14.7467C32.9058 14.5875 32.8296 14.4403 32.7141 14.3255C32.5986 14.2106 32.4496 14.1338 32.2876 14.1057ZM39.5306 14.1057C39.389 14.1891 39.422 14.3511 39.4834 14.5132C39.5758 14.6719 39.6367 14.8463 39.6628 15.0272C39.6524 15.1381 39.6136 15.2446 39.55 15.3369C39.4865 15.4291 39.4002 15.5042 39.2992 15.5551C39.1549 15.4787 39.0382 15.3603 38.9653 15.2161C38.8924 15.0719 38.8669 14.9092 38.8923 14.7502C38.9177 14.5912 38.9927 14.4439 39.107 14.3284C39.2213 14.213 39.3693 14.1352 39.5306 14.1057ZM38.3313 11.244C38.2227 11.1282 38.0669 11.193 37.9205 11.2856C37.7822 11.4052 37.6219 11.4979 37.4484 11.5589C37.3367 11.5715 37.2236 11.557 37.119 11.5166C37.0145 11.4762 36.9216 11.4112 36.8487 11.3273C36.8946 11.1743 36.9876 11.039 37.1149 10.9398C37.2423 10.8407 37.3977 10.7826 37.5601 10.7734C37.7224 10.7643 37.8837 10.8046 38.0217 10.8889C38.1598 10.9731 38.2679 11.0971 38.3313 11.244ZM42.6469 20.4312C42.5383 20.3154 42.6138 20.1673 42.7177 20.0283C42.8487 19.8942 42.9528 19.7371 43.0246 19.5653C43.0392 19.46 43.0284 19.3527 42.9932 19.2522C42.9579 19.1517 42.8992 19.0607 42.8216 18.9864C42.6654 19.0246 42.5247 19.1085 42.4183 19.227C42.3118 19.3455 42.2447 19.4929 42.2257 19.6497C42.2068 19.8065 42.2369 19.9652 42.3121 20.1048C42.3873 20.2444 42.5041 20.3583 42.6469 20.4312ZM44.2853 20.0283C44.3372 19.9357 44.2853 19.857 44.1814 19.7922C44.0775 19.7274 43.9737 19.6718 43.9264 19.5792C43.8996 19.5113 43.8895 19.4382 43.8969 19.3658C43.9043 19.2934 43.929 19.2237 43.9689 19.1624C44.4883 19.0883 44.6488 19.7598 44.2853 20.0283ZM44.087 24.145C44.0114 23.9876 44.1295 23.8764 44.2711 23.7838C44.4128 23.6912 44.6063 23.6079 44.6913 23.4689C44.7459 23.3676 44.7744 23.2547 44.7744 23.1402C44.7744 23.0256 44.7459 22.9127 44.6913 22.8114C43.8603 22.6447 43.5393 23.6866 44.087 24.145ZM37.642 7.65984C37.7931 7.69688 37.8119 7.85432 37.8025 8.0164C37.7697 8.18467 37.7697 8.3575 37.8025 8.52577C37.8429 8.62253 37.9072 8.7079 37.9896 8.77419C38.072 8.84048 38.17 8.8856 38.2747 8.90549C38.384 8.79616 38.4558 8.65614 38.4802 8.5049C38.5045 8.35367 38.4802 8.19874 38.4106 8.06169C38.341 7.92464 38.2296 7.81228 38.0918 7.74026C37.954 7.66823 37.7968 7.64012 37.642 7.65984ZM45.9709 18.0603C45.8293 18.0372 45.749 18.1622 45.697 18.3057C45.6573 18.4619 45.5885 18.6094 45.494 18.741C45.4202 18.8077 45.3306 18.8554 45.2334 18.8796C45.1361 18.9039 45.0342 18.904 44.9369 18.8799C44.8872 18.745 44.8817 18.5983 44.921 18.4601C44.9604 18.322 45.0427 18.1993 45.1564 18.1092C45.2702 18.019 45.4097 17.9658 45.5557 17.9571C45.7017 17.9483 45.8468 17.9844 45.9709 18.0603ZM42.0803 9.36392C41.9575 9.2852 41.8395 9.36392 41.7356 9.48895C41.6317 9.61398 41.5231 9.75753 41.3815 9.81773C41.2885 9.85284 41.1881 9.86488 41.0893 9.85276C40.9904 9.84064 40.8962 9.80475 40.8149 9.74827C40.8184 9.60478 40.8678 9.466 40.956 9.35151C41.0443 9.23701 41.167 9.15258 41.3068 9.11012C41.4465 9.06766 41.5964 9.06931 41.7352 9.11485C41.874 9.16039 41.9947 9.24751 42.0803 9.36392ZM46.2731 21.4453C46.2731 21.3018 46.1125 21.3018 45.9567 21.3018C45.8008 21.3316 45.6405 21.3316 45.4846 21.3018C45.3934 21.2586 45.3148 21.1935 45.2562 21.1126C45.1976 21.0316 45.1608 20.9374 45.1493 20.8387C45.2565 20.7545 45.3868 20.7034 45.5236 20.6918C45.6604 20.6802 45.7976 20.7087 45.918 20.7736C46.0383 20.8386 46.1362 20.9371 46.1994 21.0566C46.2627 21.1762 46.2883 21.3115 46.2731 21.4453ZM41.712 15.6802C41.6364 15.8005 41.4901 15.7681 41.3437 15.7126C41.1991 15.6286 41.0384 15.575 40.8715 15.5551C40.7735 15.5627 40.679 15.5943 40.5965 15.6468C40.514 15.6994 40.4463 15.7713 40.3994 15.8561C40.4644 15.9848 40.5689 16.0901 40.6982 16.1574C40.8276 16.2246 40.9752 16.2503 41.1202 16.2309C41.2652 16.2114 41.4004 16.1478 41.5065 16.049C41.6127 15.9502 41.6846 15.8212 41.712 15.6802ZM41.8584 13.2213C41.8867 13.0499 41.7262 12.9666 41.5467 12.9064C41.3501 12.8667 41.1627 12.7913 40.9943 12.6841C40.9091 12.6016 40.8464 12.4994 40.8117 12.387C40.7771 12.2746 40.7717 12.1554 40.796 12.0404C40.9592 11.9778 41.1381 11.9659 41.3085 12.0063C41.4788 12.0467 41.6324 12.1375 41.7484 12.2664C41.8643 12.3953 41.9371 12.556 41.9568 12.7268C41.9764 12.8976 41.9421 13.0702 41.8584 13.2213ZM45.9992 14.5642C45.952 14.4762 45.8481 14.4947 45.7443 14.5271C45.643 14.5738 45.5345 14.6036 45.4232 14.6151C45.3545 14.6052 45.2892 14.5789 45.2333 14.5385C45.1773 14.4982 45.1323 14.445 45.1021 14.3836C45.1478 14.2906 45.2237 14.2153 45.318 14.1695C45.4123 14.1237 45.5194 14.1101 45.6225 14.1309C45.7255 14.1516 45.8185 14.2055 45.8868 14.284C45.955 14.3625 45.9946 14.4611 45.9992 14.5642ZM43.6054 15.5736C43.5062 15.6663 43.5582 15.7959 43.6431 15.9163C43.7439 16.0319 43.8209 16.1656 43.8698 16.3099C43.8816 16.4022 43.8697 16.4959 43.8351 16.5825C43.8004 16.669 43.7442 16.7457 43.6715 16.8054C43.5387 16.7677 43.4211 16.6903 43.3352 16.5841C43.2492 16.4778 43.1991 16.348 43.1919 16.2126C43.1846 16.0771 43.2205 15.9429 43.2946 15.8284C43.3687 15.7139 43.4773 15.6248 43.6054 15.5736ZM36.0508 7.50239C36.3435 7.69688 36.8298 7.87748 36.8393 8.28498C36.8413 8.40516 36.7956 8.5214 36.7118 8.60912C36.6502 8.62352 36.5862 8.62561 36.5238 8.61527C36.4613 8.60492 36.4016 8.58236 36.3482 8.54892C35.9894 8.33591 36.0602 7.84043 36.0319 7.50239H36.0508ZM40.6591 13.1333C40.2766 13.2768 39.7809 13.5964 39.3842 13.3324C39.2681 13.2517 39.1872 13.131 39.1576 12.9944C39.1859 12.9286 39.2272 12.869 39.279 12.8189C39.3309 12.7689 39.3923 12.7293 39.4598 12.7026C39.8706 12.5359 40.3002 12.9342 40.6402 13.1333H40.6591ZM44.9416 14.5225C44.5969 14.3095 44.1767 13.8973 43.7329 14.0594C43.6007 14.1185 43.4961 14.2243 43.4401 14.3558C43.4542 14.4255 43.4823 14.4917 43.5228 14.5505C43.5634 14.6094 43.6155 14.6597 43.6762 14.6984C44.0492 14.9392 44.5544 14.6336 44.9227 14.504L44.9416 14.5225ZM41.0085 10.5586C41.0651 10.8457 41.2398 11.2393 41.0085 11.4848C40.9723 11.5214 40.9291 11.5506 40.8812 11.5704C40.8333 11.5903 40.7819 11.6006 40.7299 11.6005C40.6846 11.5731 40.6457 11.5366 40.6156 11.4936C40.5856 11.4505 40.565 11.4018 40.5552 11.3505C40.4749 11.0263 40.8196 10.7716 41.0085 10.5586ZM46.5894 15.4949C46.2589 15.5644 45.7631 15.5644 45.6073 15.9302C45.5651 16.0375 45.5651 16.1563 45.6073 16.2636C45.6569 16.2976 45.7131 16.3213 45.7724 16.3333C45.8316 16.3452 45.8928 16.3452 45.952 16.3331C46.3345 16.2544 46.4478 15.7867 46.5894 15.4949ZM41.2729 13.6102C41.0982 13.8371 40.8007 14.1104 40.8857 14.4299C40.8763 14.4913 40.8922 14.5538 40.9298 14.6038C40.9675 14.6537 41.0238 14.6869 41.0864 14.6961C41.149 14.7053 41.2128 14.6898 41.2637 14.6529C41.3146 14.616 41.3485 14.5607 41.3579 14.4993C41.5515 14.24 41.3437 13.8927 41.2729 13.6102ZM44.578 11.6329C44.6488 11.9756 44.8613 12.4433 44.578 12.7397C44.4928 12.8275 44.3758 12.8791 44.2522 12.8832C44.1974 12.8508 44.1499 12.8079 44.1126 12.7569C44.0753 12.706 44.0489 12.6481 44.035 12.5869C43.9689 12.1979 44.3844 11.8923 44.6016 11.6329H44.578ZM37.5806 15.2819C37.9725 15.2819 38.5249 15.1615 38.794 15.5366C38.8682 15.6472 38.8969 15.7812 38.8743 15.9117C38.8264 15.9616 38.7686 16.0013 38.7045 16.0284C38.6403 16.0555 38.5711 16.0693 38.5013 16.0691C38.0575 16.0552 37.8119 15.5551 37.5806 15.2819ZM38.931 10.2808C38.5721 10.0956 38.1188 9.72048 37.6939 9.93812C37.5695 10.0057 37.4752 10.1163 37.4295 10.2484C37.4707 10.3863 37.5657 10.5028 37.6939 10.5725C38.1 10.7855 38.5721 10.4429 38.931 10.2808ZM45.3004 14.8744C45.3949 15.268 45.6546 15.8005 45.3335 16.1432C45.2378 16.2447 45.1059 16.306 44.9652 16.3146C44.9018 16.28 44.8464 16.233 44.8026 16.1764C44.7587 16.1198 44.7272 16.0549 44.7102 15.9858C44.5969 15.5459 45.0549 15.18 45.3004 14.8744ZM38.6193 14.6058C38.4352 14.2863 38.2747 13.7723 37.8355 13.7306C37.7058 13.721 37.5773 13.7608 37.4767 13.8418C37.4551 13.9041 37.4473 13.9702 37.4539 14.0356C37.4604 14.1011 37.481 14.1645 37.5145 14.2215C37.7222 14.5873 38.2463 14.5549 38.6193 14.6058ZM42.3966 12.6146C42.6705 12.9851 43.1804 13.425 42.9963 13.9344C42.9402 14.0805 42.8309 14.2009 42.6894 14.2724C42.6061 14.2631 42.5258 14.2368 42.4535 14.1953C42.3811 14.1539 42.3183 14.0981 42.2691 14.0316C41.9622 13.6195 42.2833 13.036 42.4061 12.6146H42.3966ZM42.5902 15.6987C42.3164 15.7218 41.9386 15.833 41.7356 15.5875C41.6775 15.5156 41.6504 15.4242 41.6601 15.3329C41.6902 15.2953 41.7281 15.2644 41.7712 15.2421C41.8143 15.2197 41.8617 15.2065 41.9103 15.2032C42.2219 15.1754 42.4202 15.5088 42.5997 15.6987H42.5902ZM37.4814 8.1831C37.59 8.48409 37.845 8.87307 37.6278 9.18333C37.5607 9.27331 37.461 9.33464 37.3492 9.35466C37.2958 9.33238 37.2476 9.29948 37.2078 9.25803C37.168 9.21659 37.1374 9.1675 37.1179 9.11387C36.9857 8.79898 37.302 8.44705 37.4814 8.1831ZM45.5507 17.6806C45.1399 17.7084 44.5591 17.8797 44.2475 17.5093C44.1593 17.3972 44.1171 17.2567 44.1295 17.1157C44.1759 17.0585 44.2338 17.0113 44.2996 16.9771C44.3654 16.9428 44.4377 16.9222 44.5119 16.9165C44.9794 16.8749 45.2815 17.3889 45.5507 17.6806ZM45.8009 20.2089C45.4846 20.3942 45.0927 20.7554 44.6961 20.5794C44.5812 20.5261 44.4917 20.4316 44.4458 20.3154C44.459 20.2521 44.4856 20.1922 44.5238 20.1396C44.562 20.087 44.611 20.0428 44.6677 20.0098C45.0219 19.7922 45.4704 20.0839 45.8009 20.2089ZM38.4918 11.1143C38.4918 11.4246 38.4399 11.8691 38.7563 12.0404C38.8032 12.0685 38.8553 12.0871 38.9097 12.095C38.964 12.103 39.0194 12.1002 39.0726 12.0868C39.1113 12.0467 39.1413 11.9994 39.1607 11.9477C39.1802 11.8959 39.1888 11.8408 39.1859 11.7858C39.1906 11.4709 38.7421 11.2995 38.4918 11.1143ZM42.8263 21.1027C43.1002 20.9452 43.5393 20.8063 43.5723 20.4405C43.5789 20.3343 43.5434 20.2298 43.4732 20.1487C43.4194 20.1322 43.3629 20.1266 43.3069 20.1321C43.2509 20.1377 43.1966 20.1544 43.1474 20.1812C42.8357 20.3756 42.8688 20.8017 42.8263 21.1027ZM39.3087 9.40097C39.0348 9.32688 38.6666 9.14628 38.4116 9.35929C38.3413 9.42411 38.2963 9.51088 38.2841 9.60472C38.3078 9.64886 38.3407 9.6877 38.3805 9.71879C38.4203 9.74987 38.4663 9.77252 38.5155 9.78531C38.8271 9.86866 39.0915 9.56304 39.3087 9.40097ZM41.5515 10.0909C41.2776 10.0215 40.9093 9.83625 40.6544 10.0493C40.5828 10.115 40.5376 10.2037 40.5269 10.2993C40.5508 10.3433 40.5837 10.382 40.6235 10.4131C40.6633 10.4441 40.7092 10.4669 40.7582 10.4799C41.0793 10.5633 41.3343 10.2576 41.5515 10.0909ZM46.0134 22.4409C45.952 22.1214 45.9756 21.6444 45.6168 21.4824C45.5108 21.4402 45.3922 21.4402 45.2863 21.4824C45.2486 21.5278 45.2214 21.5808 45.2068 21.6376C45.1921 21.6943 45.1902 21.7536 45.2013 21.8112C45.2627 22.1677 45.7254 22.2927 46.0134 22.4409ZM44.0586 17.764C43.8651 17.8242 43.5865 17.9723 43.4118 17.8288C43.3567 17.7849 43.3212 17.7218 43.3126 17.6528C43.3275 17.6196 43.3496 17.59 43.3773 17.566C43.405 17.542 43.4377 17.5243 43.4732 17.5139C43.6951 17.4398 43.9123 17.6528 44.0586 17.764ZM45.6782 23.3948C45.3429 23.1865 44.7999 22.992 44.7763 22.5335C44.7733 22.3996 44.8242 22.2698 44.918 22.1723C44.9865 22.1523 45.0587 22.1469 45.1295 22.1564C45.2004 22.166 45.2683 22.1904 45.3288 22.2279C45.7065 22.4594 45.6404 23.0198 45.6782 23.3948ZM37.1792 15.1754C37.3067 14.9161 37.5759 14.5873 37.4059 14.291C37.3949 14.2375 37.3654 14.1893 37.3224 14.1548C37.2793 14.1202 37.2254 14.1013 37.1698 14.1013C37.1142 14.1013 37.0603 14.1202 37.0172 14.1548C36.9742 14.1893 36.9447 14.2375 36.9337 14.291C36.7826 14.5966 37.0423 14.9254 37.1698 15.1754H37.1792ZM39.7997 8.15995C39.4645 8.19236 38.9735 8.13679 38.7799 8.47946C38.7207 8.57519 38.6989 8.6887 38.7185 8.79898C38.8125 8.8784 38.9346 8.91832 39.0584 8.91012C39.4503 8.88233 39.6156 8.43316 39.7903 8.15995H39.7997ZM46.7925 20.283C46.6319 19.8987 46.5233 19.3106 46.037 19.2041C45.8939 19.1794 45.7466 19.2057 45.6215 19.2782C45.5909 19.346 45.5751 19.4193 45.5751 19.4935C45.5751 19.5677 45.5909 19.641 45.6215 19.7088C45.8009 20.1441 46.4006 20.1765 46.7925 20.283ZM40.6874 13.513C40.6874 13.9066 40.796 14.4669 40.3994 14.7262C40.283 14.7987 40.1435 14.8268 40.0075 14.805C39.9551 14.7562 39.9137 14.6973 39.886 14.6319C39.8584 14.5664 39.8451 14.496 39.847 14.4252C39.847 13.9807 40.3758 13.7399 40.6874 13.513ZM42.1039 9.89645C41.797 10.165 41.2682 10.4521 41.3201 10.9245C41.3378 11.0647 41.4106 11.1927 41.5231 11.281C41.5967 11.2884 41.671 11.2812 41.7416 11.2597C41.8122 11.2382 41.8776 11.2029 41.9339 11.156C42.3069 10.855 42.1511 10.2901 42.1228 9.89645H42.1039ZM40.9801 19.13C40.8527 18.8012 40.7771 18.2965 40.3663 18.2039C40.2454 18.176 40.1182 18.196 40.0122 18.2594C39.9869 18.3172 39.9738 18.3794 39.9738 18.4423C39.9738 18.5052 39.9869 18.5675 40.0122 18.6253C40.135 18.9864 40.6496 19.0328 40.9801 19.13ZM44.2853 25.1823C44.493 24.9461 44.8613 24.6729 44.7574 24.3163C44.7282 24.2116 44.6588 24.1221 44.5639 24.0663C44.5065 24.0682 44.4502 24.0816 44.3983 24.1054C44.3463 24.1293 44.2999 24.1632 44.2617 24.2052C44.0539 24.4738 44.2381 24.8859 44.3042 25.1823H44.2853ZM42.0236 16.2868C42.0236 16.6943 42.1369 17.2731 41.7309 17.5417C41.6092 17.614 41.4654 17.6419 41.3248 17.6204C41.2712 17.5695 41.2288 17.5082 41.2004 17.4405C41.1719 17.3728 41.158 17.3 41.1596 17.2268C41.136 16.7684 41.6789 16.5229 42.0236 16.2868ZM38.3974 13.5084C38.4032 13.6119 38.4405 13.7113 38.5044 13.7939C38.5684 13.8764 38.6561 13.9383 38.7563 13.9714C39.1009 14.0779 39.4456 13.8464 39.7525 13.9714C39.2804 13.0638 38.6713 13.1703 38.3738 13.5223L38.3974 13.5084ZM43.4968 13.3463C43.3942 13.3235 43.3012 13.2705 43.2303 13.1943C43.1594 13.1182 43.114 13.0225 43.1002 12.9203C43.0529 12.5637 43.3457 12.2766 43.289 11.9571C44.0917 12.5683 43.8792 13.1379 43.4732 13.3602L43.4968 13.3463ZM40.3994 9.72511C40.2932 9.70173 40.1965 9.64784 40.1216 9.57031C40.0468 9.49278 39.9972 9.39513 39.9792 9.28983C39.9178 8.92401 40.2152 8.61375 40.1491 8.28498C41.0274 8.88233 40.8196 9.47969 40.3994 9.72511ZM42.5194 18.8197C42.5019 18.8842 42.4651 18.9421 42.4138 18.9858C42.3625 19.0296 42.2989 19.0572 42.2314 19.0652C41.9953 19.0652 41.8111 18.8938 41.5987 18.9262C42.0236 18.4122 42.3825 18.5604 42.5194 18.8197ZM43.9123 24.4599C43.8541 24.4537 43.7954 24.465 43.744 24.4923C43.6925 24.5195 43.6508 24.5616 43.6243 24.6127C43.5345 24.7887 43.6243 24.9924 43.544 25.1452C44.0728 25.0063 44.0681 24.6498 43.9123 24.4599ZM42.8169 14.8188C42.8005 14.9061 42.81 14.9961 42.8444 15.0782C42.8787 15.1603 42.9363 15.231 43.0104 15.2819C43.2796 15.4532 43.6243 15.3329 43.8556 15.4949C43.6904 14.629 43.1474 14.5827 42.8169 14.8188ZM39.8045 18.2178C39.8402 18.2698 39.8593 18.331 39.8593 18.3937C39.8593 18.4564 39.8402 18.5177 39.8045 18.5697C39.6864 18.7549 39.4315 18.7781 39.3323 18.9448C39.1907 18.3474 39.5259 18.1668 39.8045 18.2178ZM44.0539 22.1075C44.0896 22.1595 44.1087 22.2208 44.1087 22.2835C44.1087 22.3462 44.0896 22.4075 44.0539 22.4594C43.9359 22.6447 43.6809 22.6678 43.5818 22.8345C43.4401 22.2279 43.7801 22.0566 44.0586 22.1075H44.0539ZM39.7384 10.6837C39.632 10.6667 39.5333 10.6187 39.455 10.5461C39.3767 10.4734 39.3224 10.3794 39.2992 10.2762C39.219 9.9196 39.4976 9.59546 39.4078 9.27594C40.3097 9.82236 40.135 10.4243 39.7384 10.6837ZM42.5713 10.8689C42.5002 10.8342 42.4411 10.7797 42.4016 10.7121C42.3621 10.6445 42.3439 10.5669 42.3494 10.4892C42.3494 10.2206 42.6374 10.0539 42.6516 9.8131C43.1521 10.3827 42.9018 10.7716 42.5619 10.8689H42.5713ZM39.3701 11.1699C39.3134 11.2007 39.2487 11.2146 39.184 11.2096C39.1194 11.2047 39.0576 11.1812 39.0065 11.1421C38.8365 11.0032 38.846 10.7485 38.6854 10.6327C39.304 10.5633 39.4456 10.9059 39.3606 11.1699H39.3701ZM37.1981 8.30813C37.0234 8.26182 36.9526 8.17847 36.929 8.07197C36.8723 7.86359 37.0281 7.66447 36.9715 7.47461C37.5098 7.78023 37.42 8.14143 37.1887 8.30813H37.1981ZM43.8556 20.5979C43.9265 20.6295 43.9861 20.6813 44.0265 20.7465C44.0669 20.8118 44.0864 20.8875 44.0823 20.9637C44.0823 21.2323 43.8131 21.4037 43.8131 21.6445C43.2796 21.0934 43.5157 20.7091 43.8462 20.5979H43.8556ZM40.135 16.1108C40.0549 16.1631 39.9929 16.2381 39.9575 16.3258C39.9221 16.4135 39.9148 16.5098 39.9367 16.6017C40.0075 16.9212 40.3569 17.0647 40.4088 17.3703C40.9188 16.597 40.5505 16.1756 40.135 16.1108ZM45.3288 16.6433C45.3058 16.7535 45.3169 16.8679 45.3607 16.9718C45.4044 17.0758 45.4788 17.1645 45.5743 17.2268C45.9048 17.4398 46.3345 17.2916 46.6272 17.4954C46.4053 16.4164 45.7301 16.3562 45.3288 16.6433ZM38.4352 16.2868C38.4154 16.3601 38.3739 16.4261 38.3159 16.4764C38.2579 16.5267 38.1861 16.559 38.1094 16.5692C37.845 16.6017 37.6372 16.3886 37.3917 16.4303C37.845 15.833 38.2699 15.9904 38.4352 16.2868ZM44.6394 19.3199C44.6936 19.2834 44.7578 19.2639 44.8235 19.2639C44.8893 19.2639 44.9535 19.2834 45.0077 19.3199C45.1918 19.4541 45.1966 19.7135 45.3665 19.8246C44.7291 19.9404 44.5639 19.5977 44.6394 19.3199ZM45.1824 23.3995C45.2474 23.4391 45.2987 23.4968 45.3299 23.5654C45.361 23.6339 45.3705 23.71 45.3571 23.7838C45.3099 24.0385 45.0407 24.1774 45.0077 24.409C44.5686 23.8116 44.8566 23.4643 45.1824 23.3995ZM45.8009 18.7966C45.8067 18.7038 45.8409 18.6148 45.899 18.5413C45.9571 18.4678 46.0365 18.4131 46.1267 18.3845C46.4383 18.2872 46.75 18.4956 47.0238 18.3845C46.5942 19.2134 46.0464 19.1161 45.8009 18.7966ZM42.1181 14.5225C42.0519 14.5353 41.9833 14.5284 41.9211 14.5029C41.8589 14.4773 41.8058 14.4342 41.7687 14.3789C41.6459 14.1844 41.7356 13.939 41.6176 13.7723C42.2455 13.8927 42.2786 14.2863 42.0992 14.5225H42.1181ZM44.3042 16.5229C44.2407 16.501 44.1854 16.4612 44.145 16.4085C44.1047 16.3557 44.0812 16.2924 44.0775 16.2266C44.0775 15.995 44.2806 15.8237 44.2617 15.6153C44.7386 16.0552 44.5639 16.4072 44.2853 16.5229H44.3042ZM45.6782 15.4532C45.7529 15.4766 45.8331 15.4771 45.9081 15.4548C45.9831 15.4325 46.0495 15.3883 46.0984 15.3282C46.2636 15.1245 46.1881 14.8281 46.3486 14.6475C45.5696 14.7216 45.4893 15.1615 45.6593 15.4532H45.6782ZM36.641 11.6376C36.6918 11.6037 36.7519 11.5856 36.8133 11.5856C36.8748 11.5856 36.9348 11.6037 36.9857 11.6376C37.1698 11.7487 37.1934 11.9895 37.3587 12.1006C36.7732 12.2118 36.5938 11.9015 36.641 11.6376ZM40.0028 12.2303C40.0601 12.1929 40.1275 12.1729 40.1964 12.1729C40.2652 12.1729 40.3326 12.1929 40.3899 12.2303C40.5883 12.3507 40.6166 12.6193 40.8007 12.7258C40.135 12.8693 39.9461 12.5267 40.0028 12.2303ZM44.6725 12.9666C44.7071 13.0137 44.7551 13.0498 44.8105 13.0704C44.8659 13.091 44.9263 13.0951 44.9841 13.0823C45.1824 13.036 45.2768 12.8277 45.4562 12.7952C44.9746 12.4618 44.7102 12.6887 44.6725 12.9666ZM41.8395 11.6376C41.9081 11.5886 41.9907 11.5623 42.0756 11.5623C42.1604 11.5623 42.243 11.5886 42.3116 11.6376C42.5477 11.7811 42.5761 12.1006 42.7838 12.2164C42.0236 12.3553 41.797 11.9571 41.8631 11.6144L41.8395 11.6376ZM43.5629 18.3798C43.5692 18.2884 43.6032 18.2008 43.6603 18.1283C43.7175 18.0557 43.7953 18.0015 43.8839 17.9723C44.1956 17.8751 44.5072 18.0835 44.781 17.9723C44.3844 18.7734 43.8509 18.6762 43.5865 18.3567L43.5629 18.3798ZM42.6185 11.3875C42.6601 11.5154 42.74 11.628 42.8478 11.7106C42.9556 11.7932 43.0864 11.842 43.2229 11.8506C43.6951 11.8506 44.0445 11.4755 44.4647 11.5172C43.6243 10.4984 42.8971 10.8272 42.6422 11.3644L42.6185 11.3875ZM44.1908 13.6288C44.2316 13.5174 44.3057 13.4207 44.4035 13.3513C44.5012 13.2819 44.618 13.2431 44.7386 13.2398C45.1635 13.2398 45.4657 13.601 45.8434 13.5732C45.0596 14.4113 44.4222 14.0965 44.2145 13.6056L44.1908 13.6288ZM37.5664 12.9388C37.5164 12.9828 37.4539 13.0108 37.3873 13.019C37.3206 13.0273 37.253 13.0155 37.1934 12.9851C36.9904 12.8786 36.9479 12.6193 36.759 12.522C37.3775 12.3322 37.5995 12.6517 37.5664 12.9388ZM43.0104 17.2361C42.8975 17.2495 42.7831 17.2293 42.682 17.1781C42.581 17.1269 42.498 17.0471 42.4438 16.949C42.255 16.6063 42.4438 16.1988 42.2597 15.9024C43.3362 16.208 43.3362 16.8563 43.0104 17.2361ZM37.8544 12.8554C37.9667 12.8424 38.0721 12.7958 38.1566 12.7222C38.241 12.6485 38.3003 12.5511 38.3266 12.4433C38.4069 12.0775 38.1236 11.7487 38.2133 11.4246C37.302 11.971 37.4484 12.5869 37.8544 12.8554ZM44.5072 21.01C44.4016 21.0398 44.3075 21.0998 44.2369 21.1823C44.1662 21.2647 44.1223 21.366 44.1106 21.4731C44.0775 21.8528 44.408 22.1446 44.3608 22.4826C45.2107 21.8158 44.951 21.2231 44.5072 21.01ZM41.8867 17.8334C43.3268 17.4352 43.8792 16.4072 45.5176 16.4072C44.2333 16.6202 43.5157 17.4259 42.5147 18.0186C43.0278 18.2126 43.525 18.4448 44.002 18.7132C44.6221 18.9776 45.2952 19.1011 45.9709 19.0744C45.3562 19.2639 44.697 19.2639 44.0823 19.0744L43.2276 18.7318C43.5163 19.0664 43.7475 19.4449 43.9123 19.8524C43.9225 19.9445 43.9527 20.0335 44.0007 20.1133C44.0487 20.1932 44.1136 20.2621 44.1908 20.3154C44.615 20.5415 44.9481 20.9024 45.1352 21.3388C44.663 20.8202 43.8745 20.5748 43.747 20.4127C43.5487 20.1302 43.5251 19.8107 43.3268 19.4403C43.1904 19.2131 43.0323 18.9991 42.8546 18.8012C42.5241 18.4354 42.3825 18.4632 41.8725 18.3382C41.2688 18.1545 40.6436 18.0472 40.0122 18.0186C39.2709 18.0186 38.9498 18.3335 38.3313 18.44C38.0386 18.491 37.8308 18.7271 37.6372 18.8197C37.4437 18.9124 37.3398 19.1393 37.2359 19.431C37.0812 19.7344 36.9897 20.065 36.9668 20.4034C36.9252 21.3782 37.0318 22.3536 37.2831 23.2976C37.5522 24.3349 38.1472 24.4321 38.4494 24.6868C38.9807 25.1296 39.6425 25.3941 40.338 25.4416C40.7678 25.5035 41.2027 25.5236 41.6364 25.5018C41.9605 25.4613 42.2873 25.4458 42.6138 25.4555C42.9443 25.5203 43.119 25.7657 43.6337 26.0158C43.2994 25.9938 42.9716 25.9139 42.6658 25.7796C42.3589 25.7362 42.0461 25.76 41.7498 25.8491C41.7073 25.8491 41.6695 25.8908 41.627 25.9047C41.9267 26.087 42.2428 26.242 42.5713 26.3677C42.0385 26.2872 41.5161 26.1506 41.0132 25.9602C40.8338 25.9602 40.6307 25.9602 40.4041 25.9324C40.1869 25.9657 39.9676 25.9843 39.7478 25.988C39.3512 25.9186 38.4824 25.812 38.0952 25.7241C38.0952 25.9463 38.7799 26.4789 39.0915 26.627C39.1718 26.627 39.2851 26.6965 39.3417 26.7011C39.6439 26.7011 40.2861 26.502 40.5977 26.5113C41.4193 26.5113 41.7545 26.9743 42.3022 27.016C41.9245 27.1225 41.457 26.7752 40.8338 26.7521C40.508 26.7521 40.3333 26.891 40.0925 26.9095C40.2635 26.9977 40.4158 27.1172 40.541 27.2614C40.6339 27.4763 40.657 27.714 40.6071 27.9422C40.586 27.7616 40.5112 27.5911 40.392 27.4519C40.2727 27.3128 40.1144 27.2111 39.9367 27.1596C39.6581 27.1272 38.9923 27.1133 38.794 27.0531C38.2652 26.9095 37.7647 26.1964 37.2501 26.2149C37.2691 26.318 37.3146 26.4147 37.3824 26.4957C37.4501 26.5767 37.5379 26.6395 37.6372 26.678C37.9441 26.803 38.0244 27.6041 38.5343 27.8218C39.0443 28.0394 38.8837 28.4284 38.8507 28.6877C38.8191 28.526 38.7403 28.3769 38.6237 28.2585C38.5072 28.1401 38.358 28.0575 38.1944 28.0209C37.8025 27.8727 37.7222 27.3402 37.3681 27.1781C37.1378 27.11 36.9149 27.02 36.7024 26.9095L36.556 26.7984C36.556 27.3031 36.9809 27.4513 37.1887 27.794C37.217 27.8357 37.2973 27.9144 37.3351 27.9746C37.42 28.1135 37.3351 28.3265 37.4248 28.4376C37.5145 28.5488 37.8308 28.9007 37.93 28.9007C37.6545 28.8143 37.3958 28.6828 37.1651 28.5117C37.0329 28.4052 37.1651 28.2663 37.0612 28.1366C36.9573 28.007 36.6976 27.9144 36.5324 27.7893C36.4386 28.0141 36.3797 28.2513 36.3577 28.4932C36.4049 28.7618 36.3577 28.9285 36.4474 29.123C36.1546 28.9933 36.098 28.4701 36.0885 28.3219C36.0885 28.2524 36.0885 27.8125 36.0885 27.7477C36.0886 27.5401 36.0226 27.3378 35.8997 27.1688C35.7747 27.3367 35.7084 27.5398 35.7108 27.7477C35.7108 27.8125 35.7108 28.2524 35.7108 28.3219C35.7108 28.4701 35.6447 28.9933 35.352 29.123C35.4653 28.9285 35.3945 28.7618 35.4417 28.4932C35.4207 28.2631 35.3666 28.0371 35.2811 27.8218C35.1206 27.9468 34.8373 28.0394 34.757 28.1691C34.6768 28.2987 34.7854 28.4376 34.6532 28.5441C34.4213 28.7161 34.1609 28.8477 33.8835 28.9331C34.0726 28.802 34.2426 28.6462 34.3888 28.4701C34.5068 28.3497 34.3888 28.1366 34.4832 28.007C34.521 27.9468 34.6012 27.8681 34.6248 27.8264C34.8373 27.4837 35.2859 27.3355 35.2623 26.8308L35.1159 26.9419C34.9034 27.0525 34.6804 27.1424 34.4501 27.2105C34.096 27.3726 34.011 27.9051 33.6191 28.0533C33.4603 28.0924 33.316 28.1749 33.2031 28.2914C33.0903 28.4078 33.0135 28.5533 32.9817 28.7108C32.9534 28.4515 32.8023 28.0718 33.3028 27.8449C33.8033 27.618 33.893 26.8262 34.1952 26.7011C34.2949 26.6625 34.3832 26.5998 34.4517 26.5189C34.5202 26.438 34.5667 26.3414 34.5871 26.2381C34.0724 26.2381 33.5672 26.9327 33.0431 27.0762C32.8259 27.1364 32.1743 27.1503 31.9005 27.1827C31.7227 27.2343 31.5644 27.3359 31.4452 27.4751C31.326 27.6142 31.2511 27.7847 31.23 27.9653C31.1639 27.7317 31.1754 27.4835 31.263 27.2568C31.3964 27.1114 31.5566 26.992 31.7352 26.9049C31.4991 26.9049 31.3197 26.7336 30.9939 26.7474C30.3707 26.7474 29.9079 27.1179 29.5255 27.0114C30.0732 26.9466 30.4132 26.5252 31.2347 26.5067C31.5463 26.5067 32.179 26.7058 32.4907 26.6965C32.5426 26.6965 32.6559 26.6317 32.7362 26.6224C33.0525 26.4742 33.7183 25.9417 33.7325 25.7194C33.3453 25.8074 32.4812 25.9139 32.0846 25.9834C31.8648 25.9797 31.6455 25.9611 31.4283 25.9278C31.2017 25.9278 30.9986 25.9278 30.8192 25.9556C30.3159 26.1449 29.7936 26.2815 29.2611 26.3631C29.5901 26.2384 29.9063 26.0834 30.2054 25.9C30.1675 25.8787 30.128 25.8602 30.0874 25.8445C29.7893 25.7555 29.475 25.7318 29.1666 25.775C28.8608 25.9092 28.5331 25.9892 28.1987 26.0112C28.7134 25.7611 28.8928 25.5157 29.2186 25.4509C29.5467 25.4412 29.875 25.4567 30.2007 25.4972C30.6345 25.519 31.0694 25.4988 31.4991 25.437C32.1941 25.3869 32.8551 25.1227 33.3878 24.6822C33.69 24.4414 34.2802 24.3441 34.5493 23.293C34.8077 22.3422 34.9191 21.3588 34.8798 20.3756C34.8569 20.0372 34.7654 19.7066 34.6107 19.4032C34.5068 19.1115 34.4313 18.9077 34.2046 18.792C33.978 18.6762 33.808 18.4632 33.5153 18.4122C32.892 18.3057 32.5709 18.0001 31.8344 17.9909C31.2029 18.0194 30.5778 18.1268 29.974 18.3104C29.4688 18.4493 29.3225 18.4215 28.992 18.7734C28.8114 18.9691 28.6531 19.1833 28.5198 19.4125C28.3965 19.7441 28.2547 20.0687 28.0948 20.3849C27.9674 20.5655 27.1788 20.8109 26.7067 21.311C26.9007 20.8716 27.2423 20.5104 27.6746 20.2877C27.7515 20.2343 27.8157 20.1653 27.863 20.0854C27.9102 20.0055 27.9394 19.9165 27.9485 19.8246C28.0992 19.4218 28.3144 19.0451 28.5859 18.7086C28.3215 18.8105 28.0476 18.9262 27.736 19.0513C27.1286 19.236 26.4784 19.236 25.871 19.0513C26.5466 19.0777 27.2196 18.9542 27.8399 18.6901C28.3158 18.4228 28.8114 18.1906 29.3225 17.9955C28.3262 17.4028 27.6038 16.6063 26.3195 16.384C27.9626 16.384 28.5151 17.412 29.9504 17.8103C30.6304 17.6667 31.2394 17.3472 31.9241 17.3472C31.976 17.3472 32.637 17.4676 32.4812 17.0555C32.1365 16.208 31.2394 15.2819 30.6445 15.2541C30.1069 15.2467 29.5814 15.0962 29.1242 14.8188C28.3687 14.4206 28.364 13.814 27.4433 13.0962C28.8834 13.6658 28.2223 14.3743 29.9929 14.754C30.5271 14.7534 31.0596 14.814 31.5794 14.9346C32.1035 15.143 33.3783 16.7359 33.808 17.1805C34.1385 17.5278 34.9318 17.6436 35.0498 17.4907C35.3425 17.1573 35.4181 15.0041 35.2009 14.5919C34.7571 13.7538 34.3132 13.6288 33.2603 13.2305C32.689 13.0175 32.4529 12.3877 32.316 12.3044C31.8957 11.971 31.4425 12.0219 30.9561 11.9247C30.0496 11.7487 29.8796 11.2995 29.2422 11.2995C30.0779 11.1884 30.7012 11.7626 31.688 11.7626C31.8182 11.7779 31.9497 11.7779 32.0799 11.7626C32.2168 11.6885 32.0799 11.4801 31.9382 11.3273C31.3622 10.767 31.5652 10.429 31.2489 9.77142C31.721 10.3178 31.5841 10.4243 31.9382 10.9337C32.2451 11.369 32.4104 11.1375 32.4435 11.5589C32.481 11.8427 32.5911 12.1125 32.7637 12.3433C32.9362 12.5741 33.1656 12.7582 33.4303 12.8786C33.9414 12.9806 34.44 13.1358 34.9176 13.3417C35.2292 13.4713 35.4889 13.5547 35.4889 13.175C35.5546 12.8005 35.5752 12.4197 35.5503 12.0404C35.3839 11.6883 35.1797 11.3546 34.9412 11.0449C34.6626 10.5818 34.6296 10.3688 34.4313 9.99369C34.2329 9.61861 33.232 9.53063 33.2556 8.60449C33.3211 8.84896 33.4713 9.06344 33.6805 9.21111C33.8773 9.31371 34.0808 9.40343 34.2896 9.47969C34.5823 9.59082 34.6343 9.62324 34.7618 9.34077C34.8798 9.13239 34.9412 8.91012 35.1773 8.79435C35.27 8.73727 35.381 8.71583 35.4889 8.73415C35.1489 8.86844 35.0828 9.16943 34.9742 9.4056C34.8755 9.62516 34.8365 9.86606 34.8609 10.1048C34.9182 10.3335 35.0174 10.55 35.1537 10.7439C35.2356 10.8566 35.3361 10.9552 35.4511 11.0356C35.5935 11.1633 35.7522 11.2723 35.9233 11.3597C36.0944 11.2723 36.2531 11.1633 36.3955 11.0356C36.5105 10.9552 36.611 10.8566 36.6929 10.7439C36.8294 10.5507 36.9271 10.3338 36.9809 10.1048C37.0013 9.85783 36.9489 9.61028 36.8298 9.39171C36.726 9.15554 36.6551 8.85455 36.3199 8.72026C36.4278 8.70443 36.5379 8.7257 36.6315 8.78046C36.8676 8.89622 36.929 9.1185 37.0423 9.32688C37.1981 9.60935 37.2501 9.57693 37.5381 9.4658C37.748 9.38836 37.9529 9.29868 38.1519 9.19722C38.3596 9.04906 38.5082 8.83456 38.5721 8.5906C38.6004 9.53989 37.6278 9.59545 37.3964 9.9798C37.1651 10.3641 37.1698 10.5494 36.8912 11.031C36.6469 11.3444 36.4379 11.6829 36.268 12.0404C36.2392 12.4224 36.2567 12.8063 36.3199 13.1842C36.3199 13.5639 36.5843 13.4806 36.8912 13.3509C37.3702 13.1445 37.8704 12.9892 38.3833 12.8879C38.6462 12.7676 38.8743 12.5847 39.0467 12.3558C39.2191 12.1269 39.3302 11.8593 39.3701 11.5774C39.422 11.156 39.5684 11.3875 39.8706 10.9522C40.2247 10.4429 40.1114 10.3364 40.5646 9.78994C40.2436 10.4475 40.4466 10.7855 39.8753 11.3458C39.7242 11.4987 39.5967 11.707 39.7336 11.7811C39.8638 11.7964 39.9954 11.7964 40.1255 11.7811C41.1124 11.7811 41.7356 11.1977 42.5713 11.3181C41.9339 11.3181 41.7639 11.7811 40.8527 11.9432C40.3805 12.0404 39.9083 11.9895 39.4976 12.3229C39.3654 12.4294 39.1293 13.0592 38.5532 13.2491C37.5003 13.6473 37.0518 13.7723 36.6079 14.6105C36.3907 15.0226 36.4663 17.1759 36.759 17.5093C36.8818 17.6436 37.675 17.5463 38.0055 17.199C38.4352 16.7359 39.7053 15.1615 40.2341 14.9531C40.754 14.8325 41.2864 14.7719 41.8206 14.7725C43.5959 14.3558 42.9349 13.6612 44.3844 13.0916C43.4401 13.8094 43.4401 14.416 42.7035 14.8142C42.2484 15.0931 41.7245 15.2451 41.1879 15.2541C40.5741 15.2819 39.6628 16.208 39.3559 17.0694C39.2001 17.4815 39.8658 17.3611 39.9131 17.3611C40.6071 17.375 41.2068 17.6899 41.8867 17.8334ZM33.4822 11.244C33.5955 11.1282 33.7513 11.193 33.8977 11.2856C34.0355 11.406 34.1958 11.4988 34.3699 11.5589C34.4822 11.5715 34.596 11.557 34.7013 11.5166C34.8067 11.4763 34.9004 11.4113 34.9742 11.3273C34.9282 11.1733 34.8346 11.037 34.7064 10.9371C34.5782 10.8373 34.4216 10.7788 34.2582 10.7696C34.0948 10.7605 33.9324 10.8012 33.7935 10.8861C33.6546 10.971 33.5458 11.096 33.4822 11.244ZM29.1666 20.4312C29.28 20.3154 29.2044 20.1673 29.1005 20.0283C28.9696 19.8942 28.8654 19.7371 28.7936 19.5653C28.7785 19.4603 28.7885 19.3533 28.8229 19.2528C28.8573 19.1523 28.9152 19.0611 28.992 18.9864C29.1482 19.0246 29.2888 19.1085 29.3953 19.227C29.5017 19.3455 29.5689 19.4929 29.5878 19.6497C29.6068 19.8065 29.5766 19.9652 29.5014 20.1048C29.4262 20.2444 29.3094 20.3583 29.1666 20.4312ZM27.533 20.0283C27.4763 19.9357 27.533 19.857 27.6321 19.7922C27.7313 19.7274 27.8399 19.6718 27.8871 19.5792C27.9146 19.5117 27.9255 19.4388 27.9189 19.3664C27.9124 19.294 27.8885 19.2241 27.8493 19.1624C27.3299 19.0883 27.1694 19.7598 27.533 20.0283ZM27.7266 24.145C27.8021 23.9876 27.6888 23.8764 27.5471 23.7838C27.4055 23.6912 27.2072 23.6079 27.1222 23.4689C27.0716 23.3656 27.0473 23.2518 27.0514 23.1373C27.0556 23.0228 27.0879 22.9109 27.1458 22.8114C27.9579 22.6447 28.2743 23.6866 27.7266 24.145ZM34.1716 7.65984C34.0252 7.69688 34.0063 7.85432 34.0158 8.0164C34.0511 8.18442 34.0511 8.35775 34.0158 8.52577C33.9761 8.62299 33.912 8.70879 33.8295 8.77519C33.7469 8.84158 33.6486 8.8864 33.5436 8.90549C33.4348 8.79641 33.3633 8.65688 33.3388 8.50619C33.3144 8.3555 33.3384 8.2011 33.4073 8.06432C33.4763 7.92755 33.5868 7.81516 33.7237 7.7427C33.8607 7.67024 34.0171 7.64128 34.1716 7.65984ZM25.8474 18.0603C25.989 18.0372 26.0645 18.1622 26.1212 18.3057C26.1595 18.4615 26.2267 18.6091 26.3195 18.741C26.3935 18.8074 26.4831 18.8548 26.5803 18.879C26.6775 18.9032 26.7793 18.9036 26.8767 18.8799C26.9252 18.7456 26.9302 18.5999 26.8908 18.4627C26.8515 18.3255 26.7698 18.2036 26.657 18.1138C26.5442 18.024 26.4058 17.9706 26.2608 17.961C26.1159 17.9514 25.9714 17.9861 25.8474 18.0603ZM29.7474 9.36392C29.8702 9.2852 29.9882 9.36392 30.0968 9.48895C30.1911 9.6192 30.3096 9.73077 30.4462 9.81773C30.54 9.85284 30.6411 9.86487 30.7407 9.85276C30.8403 9.84065 30.9353 9.80477 31.0175 9.74827C31.0124 9.60501 30.962 9.46686 30.8731 9.35302C30.7843 9.23919 30.6615 9.15531 30.5219 9.11305C30.3822 9.07078 30.2326 9.07223 30.0938 9.11719C29.955 9.16215 29.8339 9.24839 29.7474 9.36392ZM25.5452 21.4453C25.5735 21.3064 25.7199 21.2833 25.8757 21.2833C26.0315 21.3136 26.192 21.3136 26.3478 21.2833C26.4401 21.2416 26.5197 21.1769 26.5785 21.0956C26.6373 21.0144 26.6734 20.9194 26.6831 20.8202C26.5759 20.7236 26.4404 20.6625 26.2958 20.6455C26.1512 20.6286 26.0049 20.6567 25.8775 20.7258C25.7501 20.795 25.6481 20.9016 25.5859 21.0308C25.5237 21.1599 25.5045 21.3049 25.531 21.4453H25.5452ZM30.1157 15.6802C30.196 15.8005 30.3423 15.7681 30.484 15.7126C30.6288 15.6291 30.7895 15.5755 30.9561 15.5551C31.054 15.5635 31.1482 15.5954 31.2305 15.6479C31.3128 15.7004 31.3807 15.7719 31.4283 15.8561C31.364 15.9877 31.2588 16.0959 31.1279 16.1651C30.997 16.2344 30.847 16.2612 30.6996 16.2416C30.5522 16.2221 30.4149 16.1572 30.3075 16.0563C30.2 15.9554 30.1279 15.8237 30.1015 15.6802H30.1157ZM29.974 13.2213C29.9457 13.0499 30.1063 12.9666 30.2857 12.9064C30.4821 12.8659 30.6693 12.7906 30.8381 12.6841C30.9197 12.5995 30.9792 12.4967 31.0113 12.3846C31.0433 12.2724 31.0471 12.1543 31.0222 12.0404C30.859 11.9778 30.6801 11.9659 30.5098 12.0063C30.3394 12.0467 30.1858 12.1375 30.0699 12.2664C29.9539 12.3953 29.8812 12.556 29.8615 12.7268C29.8418 12.8976 29.8762 13.0702 29.9599 13.2213H29.974ZM25.8332 14.5642C25.8804 14.4762 25.9843 14.4947 26.0834 14.5271C26.1865 14.5733 26.2965 14.603 26.4092 14.6151C26.4775 14.6057 26.5423 14.5795 26.5976 14.539C26.6529 14.4986 26.6969 14.4451 26.7256 14.3836C26.6829 14.2854 26.6071 14.2047 26.5108 14.1551C26.4146 14.1055 26.3038 14.09 26.1972 14.1112C26.0906 14.1325 25.9948 14.1891 25.9259 14.2717C25.857 14.3542 25.8192 14.4575 25.819 14.5642H25.8332ZM28.227 15.5736C28.3262 15.6663 28.2695 15.7959 28.1893 15.9163C28.0872 16.0318 28.0087 16.1654 27.9579 16.3099C27.9457 16.4026 27.958 16.4969 27.9935 16.5836C28.0291 16.6704 28.0867 16.7467 28.1609 16.8054C28.2931 16.7661 28.4095 16.6874 28.494 16.5803C28.5786 16.4732 28.627 16.3429 28.6328 16.2076C28.6385 16.0723 28.6011 15.9386 28.5259 15.825C28.4507 15.7114 28.3413 15.6236 28.2129 15.5736H28.227ZM35.7816 7.50239C35.4889 7.69688 35.0026 7.87748 34.9931 8.28498C34.9911 8.40516 35.0368 8.5214 35.1206 8.60912C35.1822 8.62352 35.2462 8.62561 35.3086 8.61527C35.3711 8.60492 35.4308 8.58236 35.4842 8.54892C35.8147 8.33591 35.7486 7.84043 35.7722 7.50239H35.7816ZM31.1639 13.1333C31.5416 13.2768 32.0421 13.5964 32.4387 13.3324C32.5542 13.2518 32.6336 13.1308 32.6606 12.9944C32.6338 12.9278 32.593 12.8674 32.541 12.8172C32.4889 12.767 32.4268 12.7279 32.3585 12.7026C31.943 12.5359 31.5133 12.9342 31.1639 13.1333ZM26.8767 14.5225C27.2213 14.3095 27.6463 13.8973 28.0901 14.0594C28.219 14.1154 28.3206 14.2184 28.3734 14.3465C28.3604 14.4166 28.3327 14.4832 28.2921 14.5422C28.2514 14.6012 28.1987 14.6512 28.1373 14.6892C27.7643 14.9392 27.2638 14.6336 26.9144 14.504L26.8767 14.5225ZM30.7909 10.5772C30.7342 10.8643 30.5595 11.2579 30.7909 11.5033C30.8261 11.5398 30.8686 11.5689 30.9157 11.5888C30.9628 11.6087 31.0135 11.619 31.0647 11.6191C31.1109 11.5921 31.1507 11.5559 31.1816 11.5128C31.2125 11.4697 31.2338 11.4207 31.2442 11.369C31.3433 11.0263 30.9986 10.7716 30.8051 10.5586L30.7909 10.5772ZM25.2241 15.4949C25.5593 15.5644 26.0551 15.5644 26.2062 15.9302C26.2484 16.0375 26.2484 16.1563 26.2062 16.2636C26.1566 16.2976 26.1004 16.3213 26.0412 16.3333C25.9819 16.3452 25.9208 16.3452 25.8615 16.3331C25.498 16.2544 25.3657 15.7867 25.2241 15.4949ZM30.5454 13.6102C30.7201 13.8371 31.0175 14.1104 30.9325 14.4299C30.9165 14.4763 30.891 14.5191 30.8578 14.5557C30.8245 14.5922 30.7841 14.6219 30.7389 14.6429C30.6873 14.6376 30.6373 14.6221 30.5919 14.5975C30.5464 14.5728 30.5065 14.5394 30.4745 14.4993C30.2762 14.24 30.4698 13.8927 30.5454 13.6102ZM27.2402 11.6329C27.1694 11.9756 26.9522 12.4433 27.2402 12.7397C27.3255 12.8275 27.4424 12.8791 27.566 12.8832C27.6208 12.8508 27.6683 12.8079 27.7056 12.7569C27.743 12.706 27.7694 12.6481 27.7832 12.5869C27.8588 12.1979 27.4385 11.8923 27.2166 11.6329H27.2402ZM34.2329 15.2819C33.8411 15.2819 33.2886 15.1615 33.0242 15.5366C32.947 15.646 32.9165 15.7806 32.9392 15.9117C32.9881 15.9615 33.0468 16.0011 33.1117 16.0282C33.1766 16.0552 33.2464 16.0692 33.317 16.0691C33.7561 16.0552 33.9969 15.5551 34.2329 15.2819ZM32.8873 10.2808C33.2461 10.0956 33.6994 9.72048 34.1243 9.93812C34.2492 10.004 34.3425 10.1155 34.384 10.2484C34.3656 10.3176 34.3326 10.3822 34.287 10.4381C34.2415 10.4939 34.1844 10.5397 34.1196 10.5725C33.7136 10.7855 33.2414 10.4429 32.8873 10.2808ZM26.5178 14.8744C26.4234 15.268 26.159 15.8005 26.48 16.1432C26.5761 16.2443 26.7078 16.3056 26.8483 16.3146C26.9126 16.2805 26.9689 16.2337 27.0136 16.1771C27.0583 16.1205 27.0905 16.0553 27.108 15.9858C27.2213 15.5459 26.7633 15.18 26.5178 14.8744ZM33.1942 14.6058C33.3783 14.2863 33.5436 13.7723 33.9827 13.7306C34.1122 13.7228 34.2401 13.7624 34.3415 13.8418C34.3624 13.9044 34.3694 13.9707 34.3621 14.0361C34.3548 14.1016 34.3333 14.1648 34.2991 14.2215C34.096 14.5873 33.553 14.5549 33.1942 14.6058ZM29.4169 12.6146C29.1336 12.9666 28.6284 13.4296 28.8031 13.9344C28.8607 14.081 28.9717 14.2015 29.1147 14.2724C29.1976 14.262 29.2776 14.2353 29.3498 14.1939C29.422 14.1526 29.4849 14.0974 29.5349 14.0316C29.8513 13.6195 29.5349 13.036 29.4075 12.6146H29.4169ZM29.228 15.6987C29.4972 15.7218 29.8796 15.833 30.0826 15.5875C30.1386 15.5145 30.1655 15.4239 30.1582 15.3329C30.128 15.2953 30.0902 15.2644 30.0471 15.2421C30.004 15.2197 29.9566 15.2065 29.9079 15.2032C29.5916 15.1754 29.3933 15.5088 29.2186 15.6987H29.228ZM34.3368 8.1831C34.2235 8.48409 33.9685 8.87307 34.1905 9.18333C34.2561 9.27267 34.354 9.33398 34.4643 9.35466C34.5189 9.33342 34.5683 9.30093 34.609 9.25939C34.6497 9.21785 34.6809 9.16823 34.7004 9.11387C34.8326 8.79898 34.5021 8.44705 34.3368 8.1831ZM26.2629 17.6806C26.6784 17.7084 27.2591 17.8797 27.566 17.5093C27.6565 17.3983 27.6988 17.257 27.6841 17.1157C27.638 17.0581 27.5802 17.0106 27.5144 16.9763C27.4485 16.942 27.376 16.9217 27.3016 16.9165C26.8342 16.8749 26.532 17.3889 26.2629 17.6806ZM26.0126 20.2089C26.329 20.3942 26.7208 20.7554 27.1222 20.5794C27.2359 20.5246 27.325 20.4306 27.3724 20.3154C27.3592 20.2521 27.3327 20.1922 27.2945 20.1396C27.2562 20.087 27.2072 20.0428 27.1505 20.0098C26.7917 19.7922 26.3478 20.0839 26.0126 20.2089ZM33.3264 11.1143C33.3264 11.4246 33.3783 11.8691 33.0573 12.0404C33.0112 12.0684 32.9598 12.0869 32.9063 12.0949C32.8527 12.1028 32.7981 12.1001 32.7456 12.0868C32.707 12.0467 32.677 11.9994 32.6575 11.9477C32.638 11.8959 32.6295 11.8408 32.6323 11.7858C32.6512 11.4709 33.0525 11.2995 33.3264 11.1143ZM28.9872 21.1027C28.7134 20.9452 28.2743 20.8063 28.2459 20.4405C28.2394 20.3343 28.2749 20.2298 28.3451 20.1487C28.3988 20.1322 28.4554 20.1266 28.5114 20.1321C28.5674 20.1377 28.6216 20.1544 28.6709 20.1812C28.9825 20.3756 28.9495 20.8017 28.9872 21.1027ZM32.5048 9.40097C32.7787 9.32688 33.147 9.14628 33.4019 9.35929C33.4758 9.42137 33.5217 9.5096 33.5294 9.60472C33.5062 9.64921 33.4735 9.68833 33.4336 9.71947C33.3937 9.75061 33.3475 9.77306 33.2981 9.78531C32.9912 9.86866 32.722 9.56304 32.5048 9.40097ZM30.2621 10.0909C30.5359 10.0215 30.9042 9.83625 31.1592 10.0493C31.1963 10.0805 31.2267 10.1188 31.2486 10.1617C31.2705 10.2046 31.2834 10.2514 31.2867 10.2993C31.2627 10.3433 31.2298 10.382 31.19 10.4131C31.1502 10.4441 31.1044 10.4669 31.0553 10.4799C30.7484 10.5633 30.4793 10.2576 30.2621 10.0909ZM25.8049 22.4409C25.8615 22.1214 25.8426 21.6444 26.1967 21.4824C26.3047 21.4422 26.424 21.4422 26.532 21.4824C26.5678 21.5288 26.5934 21.5819 26.6072 21.6385C26.621 21.6951 26.6227 21.7539 26.6123 21.8112C26.5509 22.1677 26.0882 22.2927 25.8049 22.4409ZM27.7549 17.764C27.9532 17.8242 28.227 17.9723 28.4017 17.8288C28.4574 17.7848 28.4945 17.7221 28.5056 17.6528C28.4907 17.6196 28.4687 17.59 28.4409 17.566C28.4132 17.542 28.3805 17.5243 28.3451 17.5139C28.1232 17.4398 27.9201 17.6528 27.7549 17.764ZM26.1401 23.3948C26.4753 23.1865 27.0183 22.992 27.0372 22.5335C27.0415 22.4002 26.9924 22.2705 26.9003 22.1723C26.8313 22.1536 26.7591 22.1492 26.6883 22.1596C26.6176 22.1699 26.5498 22.1948 26.4895 22.2325C26.1118 22.4594 26.1731 23.0198 26.1401 23.3948ZM34.639 15.1754C34.5115 14.9161 34.2424 14.5873 34.4124 14.291C34.4124 14.2295 34.4372 14.1707 34.4815 14.1272C34.5258 14.0838 34.5858 14.0594 34.6484 14.0594C34.7111 14.0594 34.7711 14.0838 34.8154 14.1272C34.8597 14.1707 34.8845 14.2295 34.8845 14.291C35.0356 14.5966 34.7712 14.9254 34.6484 15.1754H34.639ZM32.0232 8.15995C32.3632 8.19236 32.8542 8.13679 33.0478 8.47946C33.104 8.57991 33.1176 8.69805 33.0856 8.80824C32.9928 8.88651 32.8726 8.92635 32.7504 8.91938C32.3679 8.88233 32.1979 8.43316 32.0232 8.15995ZM25.0258 20.283C25.1863 19.8987 25.2949 19.3106 25.7812 19.2041C25.9243 19.1798 26.0715 19.2061 26.1967 19.2782C26.2537 19.4163 26.2537 19.5707 26.1967 19.7088C26.0268 20.1441 25.4177 20.1765 25.0258 20.283ZM31.1308 13.513C31.1308 13.9066 31.0222 14.4669 31.4141 14.7262C31.5323 14.7987 31.6732 14.8266 31.8108 14.805C31.9135 14.7043 31.9712 14.5677 31.9713 14.4252C31.9713 13.9807 31.4425 13.7399 31.1308 13.513ZM29.6908 9.89645C30.0024 10.165 30.5312 10.4521 30.4745 10.9245C30.4569 11.0647 30.384 11.1927 30.2715 11.281C30.198 11.2879 30.1238 11.2804 30.0533 11.2589C29.9828 11.2375 29.9173 11.2025 29.8607 11.156C29.5066 10.855 29.6671 10.2901 29.6908 9.89645ZM30.8334 19.13C30.9609 18.8012 31.0411 18.2965 31.4472 18.2039C31.5697 18.1786 31.6974 18.1983 31.806 18.2594C31.8314 18.3172 31.8444 18.3794 31.8444 18.4423C31.8444 18.5052 31.8314 18.5675 31.806 18.6253C31.6833 18.9864 31.1639 19.0328 30.8334 19.13ZM27.5282 25.1823C27.3205 24.9461 26.9522 24.6729 27.0561 24.3163C27.0699 24.2642 27.0941 24.2152 27.1273 24.1723C27.1606 24.1294 27.2021 24.0933 27.2497 24.0663C27.3064 24.0678 27.3622 24.0809 27.4134 24.1048C27.4646 24.1288 27.5102 24.163 27.5471 24.2052C27.7596 24.4738 27.5755 24.8859 27.5141 25.1823H27.5282ZM29.8324 16.2868C29.8324 16.6943 29.7191 17.2731 30.1251 17.5417C30.2465 17.6147 30.3906 17.6427 30.5312 17.6204C30.5831 17.5684 30.624 17.5069 30.6516 17.4393C30.6792 17.3718 30.6928 17.2995 30.6917 17.2268C30.6917 16.7684 30.1346 16.5229 29.8182 16.2868H29.8324ZM33.4539 13.5084C33.4487 13.6121 33.4117 13.7118 33.3477 13.7945C33.2836 13.8771 33.1955 13.9388 33.095 13.9714C32.7504 14.0779 32.4057 13.8464 32.0988 13.9714C32.5332 13.0638 33.147 13.1703 33.4397 13.5223L33.4539 13.5084ZM28.3309 13.3602C28.4329 13.3362 28.5252 13.2828 28.5959 13.2069C28.6666 13.1309 28.7125 13.0359 28.7275 12.9342C28.7748 12.5776 28.482 12.2905 28.5387 11.971C27.7218 12.5683 27.939 13.1379 28.3309 13.3602ZM31.4141 9.72511C31.521 9.70197 31.6184 9.64825 31.694 9.57076C31.7697 9.49327 31.8202 9.3955 31.8391 9.28983C31.8957 8.92401 31.5983 8.61375 31.6691 8.28498C30.7909 8.88233 30.9986 9.47969 31.4141 9.72511ZM29.2752 18.8197C29.2942 18.8843 29.332 18.9419 29.384 18.9856C29.4361 19.0292 29.5 19.0569 29.568 19.0652C29.7993 19.0652 29.9882 18.8938 30.196 18.9262C29.8041 18.4122 29.4358 18.5604 29.2752 18.8197ZM27.9201 24.4599C27.9782 24.4543 28.0367 24.4659 28.088 24.4931C28.1393 24.5203 28.1811 24.562 28.2082 24.6127C28.2979 24.7887 28.2082 24.9924 28.2884 25.1452C27.7454 25.0063 27.7502 24.6498 27.9201 24.4599ZM29.0014 14.8188C29.0173 14.9066 29.007 14.9969 28.9718 15.079C28.9366 15.1612 28.8781 15.2316 28.8031 15.2819C28.5387 15.4532 28.194 15.3329 27.9579 15.4949C28.1279 14.629 28.6662 14.5827 29.0014 14.8188ZM32.0091 18.2224C31.9733 18.2744 31.9543 18.3357 31.9543 18.3984C31.9543 18.4611 31.9733 18.5223 32.0091 18.5743C32.1271 18.7595 32.3821 18.7827 32.4812 18.9494C32.6182 18.3474 32.2924 18.1668 32.0091 18.2178V18.2224ZM27.7596 22.1121C27.7239 22.1641 27.7048 22.2254 27.7048 22.2881C27.7048 22.3508 27.7239 22.4121 27.7596 22.4641C27.8824 22.6493 28.1326 22.6725 28.2318 22.8392C28.364 22.2279 28.0382 22.0566 27.7596 22.1075V22.1121ZM32.0752 10.6883C32.1824 10.6721 32.2822 10.6246 32.3614 10.5519C32.4406 10.4792 32.4955 10.3847 32.519 10.2808C32.5993 9.92423 32.3207 9.60009 32.4057 9.28057C31.5039 9.82236 31.6786 10.4243 32.0752 10.6837V10.6883ZM29.2422 10.8735C29.3146 10.8404 29.3748 10.7862 29.4145 10.7182C29.4543 10.6502 29.4716 10.5718 29.4641 10.4938C29.4405 10.2252 29.1761 10.0585 29.1666 9.81773C28.6614 10.3827 28.9164 10.7716 29.2752 10.8689L29.2422 10.8735ZM32.4482 11.1745C32.504 11.2056 32.568 11.2195 32.6319 11.2146C32.6959 11.2096 32.7569 11.186 32.807 11.1467C32.977 11.0078 32.9723 10.7531 33.1328 10.6374C32.5143 10.5633 32.3679 10.9059 32.4576 11.1699L32.4482 11.1745ZM34.6154 8.31276C34.6799 8.30467 34.7404 8.27786 34.7892 8.23578C34.838 8.19369 34.8728 8.13826 34.8893 8.0766C34.9459 7.86822 34.7854 7.6691 34.8468 7.47924C34.3085 7.78023 34.3935 8.14143 34.6248 8.30813L34.6154 8.31276ZM27.9721 20.5979C27.9011 20.6298 27.8413 20.6815 27.8001 20.7466C27.7589 20.8117 27.7383 20.8872 27.7407 20.9637C27.7407 21.2323 28.0099 21.4037 28.0146 21.6445C28.5387 21.0934 28.2979 20.7091 27.9721 20.5979ZM31.688 16.1108C31.769 16.1624 31.8318 16.2372 31.8681 16.3249C31.9044 16.4127 31.9124 16.5093 31.891 16.6017C31.8202 16.9212 31.4708 17.0647 31.4189 17.3703C30.8995 16.597 31.2678 16.1756 31.688 16.1108ZM26.4942 16.6433C26.5183 16.753 26.5082 16.8673 26.4652 16.9714C26.4223 17.0754 26.3485 17.1644 26.2534 17.2268C25.9182 17.4398 25.4885 17.2916 25.2005 17.4954C25.413 16.4164 26.0834 16.3562 26.4989 16.6433H26.4942ZM33.3783 16.2868C33.3973 16.3598 33.4379 16.4256 33.495 16.4759C33.5522 16.5262 33.6234 16.5587 33.6994 16.5692C33.9638 16.6017 34.1716 16.3886 34.4171 16.4303C33.9969 15.833 33.5483 15.9904 33.3831 16.2868H33.3783ZM27.1788 19.3199C27.1237 19.2836 27.0588 19.2643 26.9923 19.2643C26.9259 19.2643 26.861 19.2836 26.8058 19.3199C26.6264 19.4541 26.6217 19.7135 26.4517 19.8246C27.0891 19.9404 27.2544 19.5977 27.1788 19.3199ZM26.6359 23.3995C26.5705 23.4389 26.5185 23.4965 26.4866 23.5649C26.4546 23.6333 26.4441 23.7095 26.4564 23.7838C26.5037 24.0385 26.7775 24.1774 26.8106 24.409C27.2449 23.8116 26.9664 23.4643 26.6359 23.3995ZM26.0315 18.7966C26.0257 18.7038 25.9915 18.6148 25.9334 18.5413C25.8753 18.4678 25.7959 18.4131 25.7057 18.3845C25.3941 18.2872 25.0872 18.4956 24.8086 18.3845C25.2194 19.2134 25.7671 19.1161 26.0315 18.7966ZM29.7144 14.5225C29.7805 14.5353 29.8491 14.5284 29.9113 14.5029C29.9736 14.4773 30.0266 14.4342 30.0638 14.3789C30.1912 14.1844 30.0968 13.939 30.2196 13.7723C29.5727 13.8927 29.5397 14.2863 29.7144 14.5225ZM27.5282 16.5229C27.7029 16.4396 27.7549 16.3377 27.7549 16.2266C27.7549 15.995 27.5566 15.8237 27.5707 15.6153C27.0797 16.0552 27.2544 16.4072 27.5282 16.5229ZM26.1543 15.4532C26.0803 15.4769 26.0007 15.4776 25.9263 15.4552C25.852 15.4328 25.7865 15.3885 25.7388 15.3282C25.5735 15.1245 25.649 14.8281 25.4885 14.6475C26.244 14.7216 26.329 15.1615 26.1543 15.4532ZM35.1726 11.6376C35.1217 11.6037 35.0617 11.5856 35.0002 11.5856C34.9388 11.5856 34.8787 11.6037 34.8279 11.6376C34.6485 11.7487 34.6248 11.9895 34.4549 12.1006C35.0403 12.2118 35.2245 11.9015 35.1726 11.6376ZM31.8155 12.2303C31.7581 12.1929 31.6908 12.1729 31.6219 12.1729C31.553 12.1729 31.4857 12.1929 31.4283 12.2303C31.2253 12.3507 31.2017 12.6193 31.0128 12.7258C31.6691 12.8693 31.8721 12.5267 31.8155 12.2303ZM27.1411 12.9666C27.1076 13.0138 27.0605 13.0501 27.0058 13.0707C26.951 13.0914 26.8913 13.0954 26.8342 13.0823C26.6359 13.036 26.5367 12.8277 26.362 12.7952C26.8436 12.4618 27.1033 12.6887 27.1411 12.9666ZM29.974 11.6376C29.9078 11.5938 29.8297 11.5704 29.7498 11.5704C29.6699 11.5704 29.5918 11.5938 29.5255 11.6376C29.2894 11.7811 29.2564 12.1006 29.0533 12.2164C29.7805 12.3553 30.0165 11.9571 29.9552 11.6144L29.974 11.6376ZM28.2318 18.3567C28.225 18.2647 28.1904 18.1767 28.1324 18.1041C28.0743 18.0315 27.9955 17.9775 27.906 17.9492C27.5943 17.8519 27.2874 18.0603 27.0089 17.9492C27.4197 18.7734 27.9674 18.6762 28.2318 18.3567ZM29.1761 11.3644C29.1354 11.4919 29.0564 11.6043 28.9494 11.687C28.8424 11.7696 28.7124 11.8186 28.5764 11.8274C28.1043 11.8274 27.7549 11.4524 27.3347 11.494C28.194 10.4984 28.9211 10.8272 29.1714 11.3644H29.1761ZM27.6085 13.6056C27.5669 13.4939 27.4919 13.3971 27.3934 13.3277C27.2949 13.2583 27.1773 13.2196 27.0561 13.2166C26.6359 13.2166 26.3337 13.5778 25.9559 13.55C26.7539 14.4113 27.3866 14.0965 27.6038 13.6056H27.6085ZM34.2518 12.9388C34.3018 12.9828 34.3643 13.0108 34.431 13.019C34.4976 13.0273 34.5652 13.0155 34.6248 12.9851C34.8279 12.8786 34.8751 12.6193 35.064 12.522C34.436 12.3322 34.2188 12.6517 34.2471 12.9388H34.2518ZM28.8031 17.2361C28.9159 17.2489 29.0301 17.2284 29.131 17.1773C29.232 17.1261 29.315 17.0466 29.3697 16.949C29.5538 16.6063 29.3697 16.1988 29.5491 15.9024C28.482 16.208 28.4773 16.8563 28.8031 17.2361ZM33.9591 12.8554C33.8466 12.843 33.7408 12.7967 33.6563 12.7229C33.5717 12.6491 33.5126 12.5514 33.4869 12.4433C33.4067 12.0775 33.6852 11.7487 33.5955 11.4246C34.5399 11.971 34.3652 12.5869 33.9638 12.8554H33.9591ZM36.0838 9.50284C36.1735 9.78531 35.6447 10.6096 36.4285 10.7994C36.4826 10.7597 36.5281 10.7097 36.5621 10.6524C36.5962 10.5952 36.6182 10.5318 36.6268 10.466C36.6929 10.0539 36.3577 9.7529 36.0885 9.50284H36.0838ZM35.7203 9.50284C35.6305 9.78531 36.1594 10.6096 35.3803 10.7994C35.3253 10.7601 35.279 10.7103 35.2441 10.653C35.2092 10.5958 35.1865 10.5321 35.1773 10.466C35.1253 10.0539 35.47 9.7529 35.725 9.50284H35.7203ZM36.6174 9.43801C36.5721 9.47038 36.5176 9.48782 36.4616 9.48782C36.4055 9.48782 36.351 9.47038 36.3057 9.43801C36.1452 9.33151 36.131 9.11387 35.9847 9.02588C36.5229 8.91475 36.6787 9.20185 36.6221 9.43801H36.6174ZM35.2009 9.43801C35.2471 9.47011 35.3024 9.48734 35.3591 9.48734C35.4157 9.48734 35.471 9.47011 35.5172 9.43801C35.6778 9.33151 35.6872 9.11387 35.8383 9.02588C35.2953 8.91475 35.1395 9.20185 35.1914 9.43801H35.2009ZM27.3158 21.0147C27.4213 21.0445 27.5154 21.1044 27.5861 21.1869C27.6567 21.2694 27.7007 21.3706 27.7124 21.4777C27.7454 21.8575 27.4196 22.1492 27.4621 22.4872C26.6075 21.8158 26.8672 21.2231 27.3063 21.01L27.3158 21.0147Z" fill="url(#paint1_linear_296_32)"/>
</g>
<path d="M111.749 7.57031L96.9851 39.222H96.8211L82 7.57031H87.8645L96.8867 27.977L105.991 7.57031H111.749Z" fill="#333333"/>
<path d="M120.674 7.57031V38.7381H115.367V7.57031H120.674Z" fill="#333333"/>
<path d="M151.103 7.57031V12.2701H140.539V38.7463H135.232V12.2701H124.668V7.57031H151.103Z" fill="#333333"/>
<path d="M166.909 7.0127L181.59 38.7464H175.849L173.388 33.1116H160.298L157.837 38.7464H152.055L166.736 7.0127H166.909ZM166.827 17.905L162.119 28.7399H171.526L166.827 17.905Z" fill="#333333"/>
<path d="M190.494 7.57031V34.0465H201.51L204.618 38.7463H185.188V7.57851L190.494 7.57031Z" fill="#333333"/>
<path d="M213.611 7.57031V38.7381H208.312V7.57031H213.611Z" fill="#333333"/>
<path d="M229.208 7.01279C232.987 6.87726 236.699 8.03457 239.731 10.2936L236.935 14.6653C234.762 12.8355 232.007 11.8433 229.167 11.8684C227.817 11.801 226.481 12.1753 225.362 12.9347C224.902 13.3051 224.54 13.7815 224.306 14.323C224.071 14.8646 223.972 15.4549 224.016 16.0432C223.991 16.5596 224.1 17.0737 224.333 17.5352C224.566 17.9967 224.915 18.3898 225.345 18.6761C226.944 19.5289 228.678 20.0979 230.471 20.3575C234.299 21.1832 237 22.3069 238.575 23.7286C239.374 24.4707 240.001 25.3788 240.412 26.389C240.823 27.3993 241.008 28.4873 240.954 29.5766C241.005 30.9093 240.755 32.2363 240.223 33.4591C239.69 34.6818 238.889 35.7686 237.878 36.6386C235.827 38.3993 233.047 39.2824 229.536 39.2878C224.785 39.2878 220.883 37.9208 217.832 35.1868L220.736 30.8151C221.903 31.968 223.301 32.8623 224.837 33.4398C226.4 34.0753 228.07 34.4065 229.758 34.4158C231.296 34.5036 232.823 34.1047 234.121 33.2757C234.636 32.9142 235.051 32.4283 235.328 31.8633C235.605 31.2983 235.734 30.6726 235.704 30.0441C235.714 29.4941 235.581 28.9509 235.318 28.4677C235.055 27.9846 234.671 27.5782 234.203 27.2882C232.569 26.3842 230.785 25.7813 228.938 25.5084C225.143 24.6991 222.474 23.5645 220.932 22.1046C220.162 21.3563 219.558 20.4536 219.161 19.4557C218.764 18.4577 218.582 17.387 218.628 16.3139C218.584 15.0443 218.824 13.7811 219.331 12.6161C219.837 11.4512 220.597 10.4139 221.556 9.58003C223.695 7.79548 226.426 6.87925 229.208 7.01279Z" fill="#333333"/>
<path d="M94.9 62V55.92C94.9 54.42 94.12 53.96 92.94 53.96C91.88 53.96 90.96 54.6 90.46 55.26V62H88.36V48.66H90.46V53.66C91.1 52.9 92.36 52.1 93.88 52.1C95.96 52.1 97 53.18 97 55.16V62H94.9ZM105.527 57.16C105.527 54.36 107.567 52.1 110.427 52.1C113.327 52.1 115.187 54.32 115.187 57.36V57.86H107.727C107.887 59.32 108.987 60.52 110.807 60.52C111.747 60.52 112.867 60.14 113.547 59.46L114.507 60.84C113.547 61.76 112.127 62.24 110.587 62.24C107.687 62.24 105.527 60.22 105.527 57.16ZM110.427 53.82C108.627 53.82 107.807 55.2 107.707 56.38H113.147C113.107 55.24 112.327 53.82 110.427 53.82ZM129.56 62V60.96C128.84 61.78 127.72 62.24 126.44 62.24C124.86 62.24 123.08 61.18 123.08 59.04C123.08 56.82 124.86 55.9 126.44 55.9C127.74 55.9 128.86 56.32 129.56 57.14V55.7C129.56 54.58 128.64 53.9 127.3 53.9C126.22 53.9 125.28 54.3 124.44 55.12L123.58 53.66C124.7 52.6 126.1 52.1 127.64 52.1C129.78 52.1 131.66 53 131.66 55.6V62H129.56ZM129.56 59.8V58.34C129.08 57.68 128.18 57.34 127.26 57.34C126.08 57.34 125.2 58.02 125.2 59.08C125.2 60.12 126.08 60.8 127.26 60.8C128.18 60.8 129.08 60.46 129.56 59.8ZM140.783 62V48.66H142.883V62H140.783ZM154.907 62.24C153.287 62.24 152.427 61.36 152.427 59.76V54.18H150.827V52.34H152.427V49.7H154.527V52.34H156.487V54.18H154.527V59.24C154.527 59.9 154.847 60.38 155.447 60.38C155.847 60.38 156.227 60.22 156.387 60.04L156.887 61.62C156.507 61.98 155.887 62.24 154.907 62.24ZM171.334 62V55.92C171.334 54.42 170.554 53.96 169.374 53.96C168.314 53.96 167.394 54.6 166.894 55.26V62H164.794V48.66H166.894V53.66C167.534 52.9 168.794 52.1 170.314 52.1C172.394 52.1 173.434 53.18 173.434 55.16V62H171.334ZM181.961 57.16C181.961 54.24 184.021 52.1 186.961 52.1C188.841 52.1 189.981 52.9 190.661 53.82L189.281 55.1C188.741 54.34 188.001 53.96 187.061 53.96C185.301 53.96 184.141 55.28 184.141 57.16C184.141 59.04 185.301 60.38 187.061 60.38C188.001 60.38 188.741 59.98 189.281 59.24L190.661 60.52C189.981 61.44 188.841 62.24 186.961 62.24C184.021 62.24 181.961 60.1 181.961 57.16ZM204.802 62V60.96C204.082 61.78 202.962 62.24 201.682 62.24C200.102 62.24 198.322 61.18 198.322 59.04C198.322 56.82 200.102 55.9 201.682 55.9C202.982 55.9 204.102 56.32 204.802 57.14V55.7C204.802 54.58 203.882 53.9 202.542 53.9C201.462 53.9 200.522 54.3 199.682 55.12L198.822 53.66C199.942 52.6 201.342 52.1 202.882 52.1C205.022 52.1 206.902 53 206.902 55.6V62H204.802ZM204.802 59.8V58.34C204.322 57.68 203.422 57.34 202.502 57.34C201.322 57.34 200.442 58.02 200.442 59.08C200.442 60.12 201.322 60.8 202.502 60.8C203.422 60.8 204.322 60.46 204.802 59.8ZM216.025 62V52.34H218.125V53.76C218.845 52.84 220.005 52.12 221.265 52.12V54.2C221.085 54.16 220.865 54.14 220.605 54.14C219.725 54.14 218.545 54.74 218.125 55.42V62H216.025ZM228.758 57.16C228.758 54.36 230.798 52.1 233.658 52.1C236.558 52.1 238.418 54.32 238.418 57.36V57.86H230.958C231.118 59.32 232.218 60.52 234.038 60.52C234.978 60.52 236.098 60.14 236.778 59.46L237.738 60.84C236.778 61.76 235.358 62.24 233.818 62.24C230.918 62.24 228.758 60.22 228.758 57.16ZM233.658 53.82C231.858 53.82 231.038 55.2 230.938 56.38H236.378C236.338 55.24 235.558 53.82 233.658 53.82Z" fill="black"/>
<defs>
<linearGradient id="paint0_linear_296_32" x1="-7.17004e-05" y1="31.0027" x2="71.9999" y2="31.0027" gradientUnits="userSpaceOnUse">
<stop stop-color="#009185"/>
<stop offset="1" stop-color="#0074E0"/>
</linearGradient>
<linearGradient id="paint1_linear_296_32" x1="24.8086" y1="18.3011" x2="47.0049" y2="18.3011" gradientUnits="userSpaceOnUse">
<stop stop-color="#009185"/>
<stop offset="1" stop-color="#0074E0"/>
</linearGradient>
<clipPath id="clip0_296_32">
<rect width="72" height="62" fill="white"/>
</clipPath>
</defs>
</svg>
